<svg width="300" height="357" viewBox="0 0 300 357" fill="none" xmlns="http://www.w3.org/2000/svg">
<g id="logo">
<g id="logo-text">
<path id="L" d="M88.6 205.2H137.4V220H70.4V80.6H88.6V205.2Z" fill="black"/>
<path id="R" d="M210.8 277L177.6 220H155.6V277H137.4V137.6H182.4C192.933 137.6 201.8 139.4 209 143C216.333 146.6 221.8 151.467 225.4 157.6C229 163.733 230.8 170.733 230.8 178.6C230.8 188.2 228 196.667 222.4 204C216.933 211.333 208.667 216.2 197.6 218.6L232.6 277H210.8ZM155.6 205.4H182.4C192.267 205.4 199.667 203 204.6 198.2C209.533 193.267 212 186.733 212 178.6C212 170.333 209.533 163.933 204.6 159.4C199.8 154.867 192.4 152.6 182.4 152.6H155.6V205.4Z" fill="black"/>
</g>
</g>
</svg>
